KRSPY-parametric-WideBlackMinGrade.ufo
<glyph name="zero" format="2">
  <advance width="5337.878205532859"/>
  <unicode hex="0030"/>
  <outline>
    <contour>
      <point x="224.2943514084655" y="0.0" type="line" identifier="4KX3b3mGg4"/>
      <point x="5113.583854124394" y="0.0" type="line" identifier="V2j8wYP0nr"/>
      <point x="5113.583854124394" y="1600.0" type="line" identifier="NaxGoenf3y"/>
      <point x="224.2943514084655" y="1600.0" type="line" identifier="rx6fJSLiri"/>
    </contour>
    <contour>
      <point x="1162.266512759005" y="501.48367586806023" type="line"/>
      <point x="1162.266512759005" y="1098.5163241319399" type="line"/>
      <point x="4175.611692773856" y="1098.5163241319399" type="line"/>
      <point x="4175.611692773856" y="501.48367586806023" type="line"/>
    </contour>
  </outline>
</glyph>
<glyph name="two" format="2">
  <advance width="4316.592052495018"/>
  <unicode hex="0032"/>
  <outline>
    <contour>
      <point x="175.8073625556367" y="0.0" type="line"/>
      <point x="4140.844369441009" y="0.0" type="line" identifier="pzdvPTirLJ"/>
      <point x="4140.844369441009" y="505.1294556360575" type="line" identifier="91SxUS0iwG"/>
      <point x="3478.8313715494237" y="505.1294556360575" type="line" identifier="fP7EN0pUcl"/>
      <point x="3478.8313715494237" y="476.06020554679566" type="line" identifier="eb458Bdvng"/>
      <point x="1343.2854333329565" y="476.06020554679566" type="line"/>
      <point x="1343.2854333329565" y="546.2247097463467" type="line" identifier="9fjc25rkUx"/>
      <point x="4136.360843764997" y="791.9031832654024" type="line" identifier="yyb1NCCI5w"/>
      <point x="4136.360843764997" y="1600.0" type="line" identifier="5FogYRSgkk"/>
      <point x="179.0409202912462" y="1600.0" type="line" identifier="svlFvrau4c"/>
      <point x="179.0409202912462" y="1029.5994824317363" type="line" identifier="LQ9fBsTy9K"/>
      <point x="841.0539181828315" y="1029.5994824317363" type="line" identifier="jS6EyIAKtm"/>
      <point x="841.0539181828315" y="1125.144743959788" type="line"/>
      <point x="2967.717375489515" y="1125.144743959788" type="line" identifier="N6CMAjhNlU"/>
      <point x="2967.717375489515" y="1016.1576685428898" type="line" identifier="yK1d5IcluK"/>
      <point x="175.8073625556367" y="741.0166307997503" type="line" identifier="teVKnpBcVb"/>
    </contour>
  </outline>
</glyph>
<glyph name="three" format="2">
  <advance width="5335.121364607851"/>
  <unicode hex="0033"/>
  <outline>
    <contour>
      <point x="224.01202704205707" y="0.0" type="line" identifier="O9abUc1nmN"/>
      <point x="5111.20543366189" y="0.0" type="line" identifier="kMJYMTfXCq"/>
      <point x="5111.20543366189" y="881.2420558696836" type="line" identifier="su2XmdS8e8"/>
      <point x="4632.646234823412" y="881.2420558696836" type="line" identifier="JQaOzDQqlF"/>
      <point x="4632.646234823412" y="788.3954705456207" type="line"/>
      <point x="5098.518560602645" y="1080.507922336751" type="line" identifier="S91TzLL02W"/>
      <point x="5098.518560602645" y="1600.0" type="line" identifier="xg8x2Ki40p"/>
      <point x="247.29730330931534" y="1600.0" type="line" identifier="pE1XSRiy68"/>
      <point x="247.29730330931534" y="1110.8639991342693" type="line" identifier="5lNstGRcSF"/>
      <point x="1016.4375877378881" y="1110.8639991342693" type="line" identifier="AcE5xKDZfE"/>
      <point x="1016.4375877378881" y="1126.9120471823173" type="line" identifier="7ogBYufWpl"/>
      <point x="3955.4959343728115" y="1126.9120471823173" type="line" identifier="RHLvSX2Jv6"/>
      <point x="3955.4959343728115" y="1018.6343881418956" type="line" identifier="YUjTrmoWd9"/>
      <point x="3822.3714615516415" y="937.4324985646307" type="line"/>
      <point x="3822.3714615516415" y="936.6670183697212" type="line" identifier="iic1IBkDqp"/>
      <point x="1612.728337947557" y="936.6670183697212" type="line" identifier="lRLJEhXMlO"/>
      <point x="1612.728337947557" y="658.4410807203601" type="line" identifier="8aKgEELrVU"/>
      <point x="4171.65619072526" y="658.4410807203601" type="line" identifier="Dm8zjmbhNr"/>
      <point x="4171.65619072526" y="472.31264297330364" type="line" identifier="xv9CFHiFgB"/>
      <point x="993.0962133304475" y="472.31264297330364" type="line" identifier="YajKQV3MHP"/>
      <point x="993.0962133304475" y="483.8507155804453" type="line" identifier="36SchVkwze"/>
      <point x="224.01202704205707" y="483.8507155804453" type="line" identifier="tVui9PiOjA"/>
    </contour>
  </outline>
</glyph>
<glyph name="four" format="2">
  <advance width="4325.7869872519"/>
  <unicode hex="0034"/>
  <outline>
    <contour>
      <point x="3065.4415564196993" y="0.0" type="line"/>
      <point x="3839.476180540613" y="0.0" type="line"/>
      <point x="3839.476180540613" y="518.5196093813674" type="line"/>
      <point x="4171.728276823418" y="518.5196093813674" type="line"/>
      <point x="4171.728276823418" y="989.7600169018281" type="line"/>
      <point x="3839.476180540613" y="989.7600169018281" type="line"/>
      <point x="3839.476180540613" y="1600.0" type="line"/>
      <point x="3065.4415564196993" y="1600.0" type="line"/>
      <point x="3065.4415564196993" y="989.7600169018281" type="line"/>
      <point x="947.1332613169044" y="989.7600169018281" type="line"/>
      <point x="947.1332613169044" y="1066.5112294534256" type="line"/>
      <point x="1330.4564870403392" y="1680.0" type="line"/>
      <point x="560.4459343704801" y="1680.0" type="line"/>
      <point x="174.26403469415362" y="1066.2179922161886" type="line"/>
      <point x="174.26403469415362" y="518.5196093813674" type="line"/>
      <point x="3065.4415564196993" y="518.5196093813674" type="line"/>
    </contour>
  </outline>
</glyph>
<glyph name="five" format="2">
  <advance width="4316.044200999269"/>
  <unicode hex="0035"/>
  <outline>
    <contour>
      <point x="180.22656796646" y="0.0" type="line" identifier="09VlJ0BjUX"/>
      <point x="4137.423825074516" y="0.0" type="line" identifier="EagWihqFM8"/>
      <point x="4137.423825074516" y="876.0275693086995" type="line" identifier="KfNuQA7eZe"/>
      <point x="952.5111600277755" y="909.7532949570887" type="line" identifier="At364YZFEy"/>
      <point x="952.5111600277755" y="1123.9397944532043" type="line" identifier="BcuLfvaQKC"/>
      <point x="4137.423825074516" y="1123.9397944532043" type="line" identifier="3ZUkG35meB"/>
      <point x="4137.423825074516" y="1600.0" type="line" identifier="SaF9ojRFrW"/>
      <point x="178.6203759247536" y="1600.0" type="line" identifier="F4sQEYelA8"/>
      <point x="178.6203759247536" y="624.2424733700028" type="line" identifier="3sQ8t8BZ6b"/>
      <point x="3363.533040971494" y="590.2831899860042" type="line" identifier="yiV6OCBLHg"/>
      <point x="3363.533040971494" y="476.06020554679566" type="line" identifier="9kdl9SYsn8"/>
      <point x="841.6766431131742" y="476.06020554679566" type="line" identifier="yZDWuX8LLe"/>
      <point x="841.6766431131742" y="448.98771333151007" type="line" identifier="jYb9001DTm"/>
      <point x="180.22656796646" y="448.98771333151007" type="line" identifier="ho4DrS0rdW"/>
    </contour>
  </outline>
</glyph>
<glyph name="six" format="2">
  <advance width="5334.454655857058"/>
  <unicode hex="0036"/>
  <outline>
    <contour>
      <point x="223.45997949901852" y="0.0" type="line" identifier="uiw6aBUf4P"/>
      <point x="5110.730917103289" y="0.0" type="line" identifier="jtYkxiUX6G"/>
      <point x="5110.730917103289" y="927.0338837335834" type="line" identifier="2G5L37c87I"/>
      <point x="1161.4321408495582" y="927.0338837335834" type="line"/>
      <point x="1161.4321408495582" y="954.3961408856304" type="line"/>
      <point x="1385.8215542870198" y="1113.1018405793182" type="line"/>
      <point x="4340.652694736779" y="1113.1018405793182" type="line"/>
      <point x="4340.652694736779" y="1185.497166836506" type="line"/>
      <point x="5109.659350040732" y="1185.497166836506" type="line" identifier="Wuidbv6mUe"/>
      <point x="5109.659350040732" y="1600.0" type="line" identifier="oGvEEuxnYv"/>
      <point x="681.698049400752" y="1600.0" type="line" identifier="xR3pEHbMJx"/>
      <point x="223.45997949901852" y="1200.432817201586" type="line" identifier="KnMArb0tv8"/>
    </contour>
    <contour>
      <point x="4171.181674166659" y="638.8670201733264" type="line"/>
      <point x="4171.181674166659" y="457.7271265259253" type="line"/>
      <point x="1161.4321408495582" y="457.7271265259253" type="line"/>
      <point x="1161.4321408495582" y="638.8670201733264" type="line"/>
    </contour>
  </outline>
</glyph>
<glyph name="seven" format="2">
  <advance width="5333.6468480492495"/>
  <unicode hex="0037"/>
  <outline>
    <contour>
      <point x="1907.2701981260536" y="0.0" type="line"/>
      <point x="3185.8232166100033" y="0.0" type="line" identifier="PiPrv7Kcoy"/>
      <point x="5109.640784929074" y="1025.7469090712334" type="line" identifier="PkvwNC9Tx1"/>
      <point x="5109.640784929074" y="1600.0" type="line" identifier="tgqM27bPOm"/>
      <point x="223.4414143873603" y="1600.0" type="line" identifier="36ml4xRICt"/>
      <point x="223.4414143873603" y="798.5206407608811" type="line" identifier="aaDZsh5Mah"/>
      <point x="992.5256006757508" y="798.5206407608811" type="line"/>
      <point x="992.5256006757508" y="1098.5163241319399" type="line"/>
      <point x="3832.546318089862" y="1098.5163241319399" type="line"/>
      <point x="3832.546318089862" y="1043.8082046009974" type="line"/>
    </contour>
  </outline>
</glyph>
<glyph name="eight" format="2">
  <advance width="4340.138272493755"/>
  <unicode hex="0038"/>
  <outline>
    <contour>
      <point x="3097.1184200585235" y="633.5108200692974" type="line"/>
      <point x="3385.1524455439744" y="483.37794433334886" type="line"/>
      <point x="3385.1524455439744" y="460.3958619612066" type="line"/>
      <point x="954.9858269497806" y="460.3958619612066" type="line"/>
      <point x="954.9858269497806" y="472.5333987740949" type="line"/>
      <point x="1244.329089951286" y="632.9083453160056" type="line"/>
    </contour>
    <contour>
      <point x="3847.7826095506794" y="799.0" type="line"/>
      <point x="3847.7826095506794" y="801.0" type="line"/>
      <point x="4155.494877193879" y="1009.2826990546666" type="line"/>
      <point x="4155.494877193879" y="1600.0" type="line"/>
      <point x="184.78723531776822" y="1600.0" type="line"/>
      <point x="184.78723531776822" y="1009.2826990546666" type="line"/>
      <point x="493.4185215687504" y="801.0" type="line"/>
      <point x="493.4185215687504" y="799.0" type="line"/>
      <point x="181.55367758215874" y="588.2732690915586" type="line"/>
      <point x="181.55367758215874" y="0.0" type="line"/>
      <point x="4158.728434929489" y="0.0" type="line"/>
      <point x="4158.728434929489" y="588.2732690915586" type="line"/>
    </contour>
    <contour>
      <point x="1244.329089951286" y="978.5386749965403" type="line"/>
      <point x="958.8218594386819" y="1132.252266411633" type="line"/>
      <point x="958.2193846853901" y="1151.6536331046311" type="line"/>
      <point x="3381.918887808365" y="1151.6536331046311" type="line"/>
      <point x="3381.316413055073" y="1132.252266411633" type="line"/>
      <point x="3096.5159453052315" y="979.1411497498322" type="line"/>
    </contour>
  </outline>
</glyph>
<glyph name="nine" format="2">
  <advance width="5334.454655857058"/>
  <unicode hex="0039"/>
  <outline>
    <contour>
      <point x="5110.827013199385" y="1600.0" type="line" identifier="uiw6aBUf4P"/>
      <point x="224.22925327730132" y="1600.0" type="line" identifier="jtYkxiUX6G"/>
      <point x="224.22925327730132" y="647.3493944394845" type="line" identifier="2G5L37c87I"/>
      <point x="4171.2777702627545" y="647.3493944394845" type="line"/>
      <point x="4171.2777702627545" y="465.0198847496145" type="line"/>
      <point x="993.7118289460632" y="465.0198847496145" type="line"/>
      <point x="993.7118289460632" y="413.7275233191149" type="line"/>
      <point x="224.62764265767268" y="413.7275233191149" type="line" identifier="Wuidbv6mUe"/>
      <point x="224.62764265767268" y="0.0" type="line" identifier="oGvEEuxnYv"/>
      <point x="5110.827013199385" y="0.0" type="line" identifier="xR3pEHbMJx"/>
    </contour>
    <contour>
      <point x="1162.201414627841" y="946.4093613132652" type="line"/>
      <point x="1162.201414627841" y="1120.3945988030073" type="line"/>
      <point x="4171.2777702627545" y="1120.3945988030073" type="line"/>
      <point x="4171.2777702627545" y="946.4093613132652" type="line"/>
    </contour>
  </outline>
</glyph>
<glyph name="A" format="2">
  <advance width="4328.620868884735"/>
  <unicode hex="0041"/>
  <outline>
    <contour>
      <point x="181.3055495547961" y="0.0" type="line" smooth="yes" identifier="jFq8ta4UUc"/>
      <point x="954.737698922418" y="0.0" type="line" smooth="yes" identifier="dQz4RxYhG4"/>
      <point x="954.737698922418" y="405.09492462368706" type="line" smooth="yes" identifier="viYRWe5UN7"/>
      <point x="3371.857240155306" y="405.09492462368706" type="line" smooth="yes" identifier="QVexAlbAcl"/>
      <point x="3371.857240155306" y="0.0" type="line" smooth="yes" identifier="ZgsCdxNJRW"/>
      <point x="4146.45478702109" y="0.0" type="line" smooth="yes" identifier="kpn4Kw9J0C"/>
      <point x="4146.45478702109" y="1600.0" type="line" smooth="yes" identifier="OBZ5Ayed7M"/>
      <point x="568.4332050271533" y="1600.0" type="line" smooth="yes" identifier="iDT0uyhKrn"/>
      <point x="181.3055495547961" y="1056.6707860006397" type="line" smooth="yes" identifier="dqVr87m3uJ"/>
    </contour>
    <contour>
      <point x="954.737698922418" y="863.0808875717261" type="line" smooth="yes" identifier="IIRC9Wy7kQ"/>
      <point x="954.737698922418" y="884.2191665412685" type="line" smooth="yes" identifier="VufvPdJ075"/>
      <point x="1117.711854103017" y="1099.8408043215288" type="line" smooth="yes" identifier="FsYtJ2vFnp"/>
      <point x="3371.857240155306" y="1099.8408043215288" type="line" smooth="yes" identifier="tUsW8L7b0y"/>
      <point x="3371.857240155306" y="863.0808875717261" type="line" smooth="yes" identifier="eTe9B4y76W"/>
    </contour>
  </outline>
</glyph>
<glyph name="B" format="2">
  <advance width="5333.52234516799"/>
  <unicode hex="0042"/>
  <outline>
    <contour>
      <point x="223.37246856466078" y="0.0" type="line" identifier="hvY9r8RmLr"/>
      <point x="5110.044891738586" y="0.0" type="line" identifier="9QFpw7nfq7"/>
      <point x="5110.044891738586" y="561.951735519303" type="line" identifier="543PerILpr"/>
      <point x="4763.4467109752395" y="799.8478057637217" type="line" identifier="zhomauHW30"/>
      <point x="4763.4467109752395" y="801.8478057637217" type="line" identifier="870ZhtaozS"/>
      <point x="5060.349872394918" y="1032.0211532854178" type="line" identifier="eGKH52Jgnk"/>
      <point x="5060.349872394918" y="1600.0" type="line" identifier="FaP204GrdB"/>
      <point x="223.37246856466078" y="1600.0" type="line" identifier="JEev70GAj6"/>
    </contour>
    <contour>
      <point x="1161.3446299152004" y="988.6152909666423" type="line" identifier="By7dfMihfe"/>
      <point x="1161.3446299152004" y="1178.5816026236446" type="line" identifier="1p5hKrurVy"/>
      <point x="4121.648435222009" y="1178.5816026236446" type="line" identifier="Qby8aMtF2X"/>
      <point x="4121.648435222009" y="1159.1153676198721" type="line" identifier="9lW01gQyU2"/>
      <point x="3950.1003315627936" y="988.6152909666423" type="line" identifier="xpxyvIzPoc"/>
    </contour>
    <contour>
      <point x="1161.3446299152004" y="421.2633354074796" type="line" identifier="jaMSiLrCua"/>
      <point x="1161.3446299152004" y="611.3847090333577" type="line" identifier="XSrxNd2axx"/>
      <point x="3834.2640057474887" y="611.3847090333577" type="line" identifier="VyYlzRh5nq"/>
      <point x="4171.343454565676" y="391.10097184271353" type="line" identifier="lsRGatjQja"/>
      <point x="4171.343454565676" y="421.2633354074796" type="line" identifier="xhlDJ3CjD5"/>
    </contour>
  </outline>
</glyph>
<glyph name="C" format="2">
  <advance width="4383.619604066354"/>
  <unicode hex="0043"/>
  <outline>
    <contour>
      <point x="172.85008717556275" y="0.0" type="line" identifier="7lPhzTnk2Z"/>
      <point x="4072.440109537373" y="0.0" type="line" identifier="qJVLZGnkwh"/>
      <point x="4072.440109537373" y="561.2429640858335" type="line" identifier="nDnDHzAMXL"/>
      <point x="3298.405485416459" y="561.2429640858335" type="line" identifier="QX1V08aTu0"/>
      <point x="3298.405485416459" y="506.18394321139" type="line" identifier="Y750RHTvDj"/>
      <point x="946.7408712785847" y="506.18394321139" type="line" identifier="L2LsGnXiZ2"/>
      <point x="947.3433460318766" y="841.0586526457153" type="line" identifier="sUWsr03vF4"/>
      <point x="1155.5301106785507" y="1093.81605678861" type="line" identifier="dbOUe6OhxL"/>
      <point x="3298.1518001876425" y="1093.81605678861" type="line" identifier="5BjRbcud80"/>
      <point x="3297.5493254343505" y="917.3857873273342" type="line" identifier="fNVDqwQo2o"/>
      <point x="4071.440109537373" y="917.3857873273342" type="line" identifier="wLqQQx7QVN"/>
      <point x="4071.440109537373" y="1600.0" type="line" identifier="9eJelv8BOw"/>
      <point x="570.7129177501373" y="1600.0" type="line" identifier="lfZev3ICaC"/>
      <point x="172.85008717556275" y="1078.812129216953" type="line" identifier="V1EWIdPahq"/>
    </contour>
  </outline>
</glyph>
<glyph name="D" format="2">
  <advance width="5338.015456898339"/>
  <unicode hex="0044"/>
  <outline>
    <contour>
      <point x="223.5502078655232" y="0.0" type="line" identifier="gh4oopoKIn"/>
      <point x="5113.845674503333" y="0.0" type="line" identifier="wIy2omw5Da"/>
      <point x="5113.845674503333" y="1096.5321567814062" type="line" identifier="ydeACnPZN4"/>
      <point x="4537.869190511833" y="1600.0" type="line" identifier="IF8msvcgce"/>
      <point x="223.5502078655232" y="1600.0" type="line" identifier="hTYdJwlqIh"/>
    </contour>
    <contour>
      <point x="1161.5223692160628" y="1098.5163241319399" type="line" identifier="YShvMHvurg"/>
      <point x="3854.102718333949" y="1098.5163241319399" type="line" identifier="DiLdvAK6bW"/>
      <point x="4175.873513152792" y="822.3978152326501" type="line" identifier="5OFemp6E2Y"/>
      <point x="4175.873513152792" y="501.48367586806023" type="line" identifier="4w8cXO1HlF"/>
      <point x="1161.5223692160628" y="501.48367586806023" type="line" identifier="OGdfzPVlic"/>
    </contour>
  </outline>
</glyph>
<glyph name="G" format="2">
  <advance width="4310.808911718656"/>
  <unicode hex="0047"/>
  <outline>
    <contour>
      <point x="172.46951029801463" y="0.0" type="line" identifier="7lPhzTnk2Z"/>
      <point x="4137.039401712168" y="0.0" type="line" identifier="qJVLZGnkwh"/>
      <point x="4137.039401712168" y="933.2912335645376" type="line" identifier="uek1NNj7De"/>
      <point x="2082.1741009184075" y="933.2912335645376" type="line" identifier="qcvimxjndX"/>
      <point x="2082.1741009184075" y="617.6948611577466" type="line" identifier="EARaY3Su65"/>
      <point x="3364.3103167312593" y="617.6948611577466" type="line" identifier="4m6dHLVhZq"/>
      <point x="3364.3103167312593" y="470.0354580138768" type="line" identifier="Y750RHTvDj"/>
      <point x="945.9016596656364" y="470.0354580138768" type="line" identifier="L2LsGnXiZ2"/>
      <point x="945.9016596656364" y="915.1031693908005" type="line" identifier="sUWsr03vF4"/>
      <point x="1125.5233572134223" y="1123.9397944532043" type="line" identifier="dbOUe6OhxL"/>
      <point x="3362.471893062473" y="1123.9397944532043" type="line" identifier="5BjRbcud80"/>
      <point x="3362.471893062473" y="1064.2954478767842" type="line" identifier="fNVDqwQo2o"/>
      <point x="4137.069439928257" y="1064.2954478767842" type="line" identifier="wLqQQx7QVN"/>
      <point x="4136.506517183386" y="1600.0" type="line" identifier="9eJelv8BOw"/>
      <point x="556.3188767360202" y="1600.0" type="line" identifier="lfZev3ICaC"/>
      <point x="172.46951029801463" y="1089.4672550247183" type="line" identifier="V1EWIdPahq"/>
    </contour>
  </outline>
</glyph>
<glyph name="J" format="2">
  <advance width="4992.183904625345"/>
  <unicode hex="004A"/>
  <outline>
    <contour>
      <point x="331.01515028542053" y="0.0" type="line" identifier="jiO9eX9U07"/>
      <point x="4776.715844974103" y="0.0" type="line" identifier="wgpFs1yguc"/>
      <point x="4776.715844974103" y="1600.0" type="line" identifier="d5Di3vNzni"/>
      <point x="296.7117177237297" y="1600.0" type="line" identifier="TbrXnCyMEi"/>
      <point x="296.7117177237297" y="1054.7597747898049" type="line" identifier="AdYfGKx8QJ"/>
      <point x="3837.1666020374723" y="1054.7597747898049" type="line" identifier="46RrD1WET2"/>
      <point x="3837.1666020374723" y="545.2402252101951" type="line" identifier="zFXsE8BUYG"/>
      <point x="1119.161107052999" y="545.2402252101951" type="line" identifier="NQmE31PUns"/>
      <point x="1024.8418057697336" y="789.1358084811538" type="line" identifier="qiXxY6YhCq"/>
      <point x="85.54472189907625" y="789.1358084811538" type="line" identifier="7exNZv1XSc"/>
    </contour>
  </outline>
</glyph>
<glyph name="M" format="2">
  <advance width="4681.72922313769"/>
  <unicode hex="004D"/>
  <outline>
    <contour>
      <point x="2191.7825026254222" y="80.0" type="line" identifier="0Dn4Xpf57M"/>
      <point x="985.8097173905904" y="1015.4943388606647" type="line"/>
      <point x="957.4703914921909" y="1015.4943388606647" type="line"/>
      <point x="957.4703914921909" y="0.0" type="line"/>
      <point x="183.43576737127728" y="0.0" type="line"/>
      <point x="183.43576737127728" y="1600.0" type="line"/>
      <point x="1124.158320864619" y="1600.0" type="line"/>
      <point x="2329.960798003126" y="654.506943523263" type="line"/>
      <point x="2351.7684251345627" y="654.506943523263" type="line" identifier="9aKZPM0HPh"/>
      <point x="3557.11226753767" y="1600.0" type="line"/>
      <point x="4498.856378511283" y="1600.0" type="line"/>
      <point x="4498.856378511283" y="0.0" type="line"/>
      <point x="3724.2588316454976" y="0.0" type="line"/>
      <point x="3724.2588316454976" y="1015.4943388606647" type="line"/>
      <point x="3696.6262685098613" y="1015.4943388606647" type="line"/>
      <point x="2489.9467205122664" y="80.0" type="line" identifier="spdoeeCFft"/>
    </contour>
  </outline>
</glyph>
<glyph name="N" format="2">
  <advance width="4547.63832901971"/>
  <unicode hex="004E"/>
  <outline>
    <contour>
      <point x="236.08308608909206" y="0.0" type="line" identifier="CkwYPPvJLv"/>
      <point x="1174.055247439632" y="0.0" type="line" identifier="oHTJsN7drZ"/>
      <point x="1174.055247439632" y="1057.0857043229416" type="line" identifier="wfBbYd10Pm"/>
      <point x="1190.803854905957" y="1057.0857043229416" type="line" identifier="MEnBDHq6zU"/>
      <point x="3320.116302488674" y="0.0" type="line" identifier="3Nbopwznvn"/>
      <point x="4321.9204429654865" y="0.0" type="line" identifier="uKfuudIUvA"/>
      <point x="4321.9204429654865" y="1600.0" type="line" identifier="XRdLFXiM4t"/>
      <point x="3383.948281614948" y="1600.0" type="line" identifier="MUSJPjCIXg"/>
      <point x="3383.948281614948" y="542.9142956770584" type="line" identifier="VILP20cFmq"/>
      <point x="3365.100995890786" y="542.9142956770584" type="line" identifier="z5b04GDwRN"/>
      <point x="1234.4339835330827" y="1600.0" type="line" identifier="LL64NQ6WBE"/>
      <point x="236.08308608909206" y="1600.0" type="line" identifier="dzUaaP1sjt"/>
    </contour>
  </outline>
</glyph>
<glyph name="O" format="2">
  <advance width="5339.440945449955"/>
  <unicode hex="004F"/>
  <outline>
    <contour>
      <point x="5089.625944262581" y="496.9840200560921" type="line" identifier="ob8US3C311"/>
      <point x="5089.625944262581" y="1600.0" type="line" identifier="c9brEFyXXA"/>
      <point x="717.7963819675531" y="1600.0" type="line" identifier="a4Ql951bxG"/>
      <point x="252.0028286544803" y="1097.8532977421867" type="line" identifier="kbL68Qh2zr"/>
      <point x="252.0028286544803" y="0.0" type="line" identifier="U6WibAQAUl"/>
      <point x="4624.012982952921" y="0.0" type="line" identifier="dfgNHTgBfR"/>
    </contour>
    <contour>
      <point x="4150.924507089671" y="897.1286361436513" type="line" identifier="SnrsQD5TLy"/>
      <point x="3831.8964099234367" y="545.2402252101951" type="line" identifier="jjd5iRDXWT"/>
      <point x="1189.97499000502" y="545.2402252101951" type="line" identifier="YbQKHpAtYn"/>
      <point x="1189.97499000502" y="695.8250142033926" type="line" identifier="vdfGLkskOQ"/>
      <point x="1532.5205054904752" y="1054.7597747898049" type="line" identifier="qXlVxK5ShE"/>
      <point x="4150.924507089671" y="1054.7597747898049" type="line" identifier="g70r2r6DwY"/>
    </contour>
  </outline>
</glyph>
<glyph name="P" format="2">
  <advance width="5333.068488909329"/>
  <unicode hex="0050"/>
  <outline>
    <contour>
      <point x="226.24794464133802" y="0.0" type="line" identifier="EG08jqU5fb"/>
      <point x="1164.2201059918775" y="0.0" type="line" identifier="osRzIFK2Cu"/>
      <point x="1164.2201059918775" y="321.580718856995" type="line" identifier="hIFVovVRwe"/>
      <point x="5053.208373538705" y="468.16977638298965" type="line" identifier="Tt6D8zYZmU"/>
      <point x="5053.208373538705" y="1600.0" type="line" identifier="6xW04auDFu"/>
      <point x="226.24794464133802" y="1600.0" type="line" identifier="eETO5GBD5v"/>
    </contour>
    <contour>
      <point x="1164.2201059918775" y="732.3579886192498" type="line" identifier="PIBVN1PGv1"/>
      <point x="1164.2201059918775" y="1098.5163241319399" type="line" identifier="IZIZQr2gYJ"/>
      <point x="4113.659130602075" y="1098.5163241319399" type="line" identifier="2c4LCF1E1R"/>
      <point x="4113.659130602075" y="811.9432585738892" type="line" identifier="1WCnzth1GX"/>
    </contour>
  </outline>
</glyph>
<glyph name="Q" format="2">
  <advance width="5339.0115430746055"/>
  <unicode hex="0051"/>
  <outline>
    <contour>
      <point x="5087.438116795473" y="1601.4585516447378" type="line" identifier="c9brEFyXXA"/>
      <point x="715.0924167410654" y="1601.4585516447378" type="line" identifier="a4Ql951bxG"/>
      <point x="252.0028286544803" y="1126.9385481577674" type="line" identifier="kbL68Qh2zr"/>
      <point x="252.0028286544803" y="1.4585516447378308" type="line" identifier="U6WibAQAUl"/>
      <point x="5087.438116795473" y="1.4585516447378308" type="line" identifier="dfgNHTgBfR"/>
    </contour>
    <contour>
      <point x="4149.465955444934" y="502.9422275127981" type="line" identifier="jjd5iRDXWT"/>
      <point x="1189.97499000502" y="502.9422275127981" type="line" identifier="YbQKHpAtYn"/>
      <point x="1189.97499000502" y="803.2361791220651" type="line" identifier="vdfGLkskOQ"/>
      <point x="1460.2498143789435" y="1099.9748757766777" type="line" identifier="qXlVxK5ShE"/>
      <point x="4149.465955444934" y="1099.9748757766777" type="line" identifier="g70r2r6DwY"/>
    </contour>
    <contour>
      <point x="2284.3576729883034" y="-400.3279736192649" type="line"/>
      <point x="3115.9623707791875" y="-400.3279736192649" type="line"/>
      <point x="3115.9623707791875" y="1.8197356515674834" type="line"/>
      <point x="2284.3576729883034" y="1.8197356515674834" type="line"/>
    </contour>
  </outline>
</glyph>
<glyph name="R" format="2">
  <advance width="5339.064560055551"/>
  <unicode hex="0052"/>
  <outline>
    <contour>
      <point x="1192.7488990491993" y="879.6309552796039" type="line"/>
      <point x="1191.2903474044613" y="1098.5163241319399" type="line"/>
      <point x="4144.344825305786" y="1098.5163241319399" type="line"/>
      <point x="4145.074101128154" y="1094.3549495441387" type="line"/>
      <point x="3809.641332022713" y="879.6309552796039" type="line"/>
    </contour>
    <contour>
      <point x="5086.142358574791" y="0.0" type="line"/>
      <point x="5086.871634397159" y="441.9802926049172" type="line"/>
      <point x="4740.329551773994" y="679.6677007337668" type="line"/>
      <point x="4740.329551773994" y="681.6677007337668" type="line"/>
      <point x="5083.7755383010635" y="912.7789861934007" type="line"/>
      <point x="5083.046262478695" y="1600.0" type="line"/>
      <point x="253.31818605392178" y="1600.0" type="line"/>
      <point x="253.31818605392178" y="0.0" type="line"/>
      <point x="1192.0196232268302" y="0.0" type="line"/>
      <point x="1192.0196232268302" y="453.99196493791084" type="line"/>
      <point x="3810.370607845082" y="453.99196493791084" type="line"/>
      <point x="4147.4409214018815" y="228.22606089573063" type="line"/>
      <point x="4147.4409214018815" y="0.0" type="line"/>
    </contour>
  </outline>
</glyph>
<glyph name="S" format="2">
  <advance width="4989.90902313725"/>
  <unicode hex="0053"/>
  <outline>
    <contour>
      <point x="252.9632605578551" y="0.0" type="line" identifier="09VlJ0BjUX"/>
      <point x="4738.419260100942" y="0.0" type="line" identifier="EagWihqFM8"/>
      <point x="4738.419260100942" y="949.0001292583876" type="line" identifier="KfNuQA7eZe"/>
      <point x="1213.9806052298545" y="949.0001292583876" type="line" identifier="At364YZFEy"/>
      <point x="1213.9806052298545" y="1130.0132865598332" type="line" identifier="BcuLfvaQKC"/>
      <point x="3970.0082514947376" y="1130.0132865598332" type="line" identifier="3ZUkG35meB"/>
      <point x="3970.0082514947376" y="1190.2265568872176" type="line" identifier="DTOJhFIl15"/>
      <point x="4728.070962854747" y="1190.2265568872176" type="line" identifier="9KDcrfQ5Ui"/>
      <point x="4728.070962854747" y="1600.0" type="line" identifier="SaF9ojRFrW"/>
      <point x="274.43136229322414" y="1600.0" type="line" identifier="F4sQEYelA8"/>
      <point x="274.43136229322414" y="648.0554758963167" type="line" identifier="3sQ8t8BZ6b"/>
      <point x="3800.4470987504014" y="648.0554758963167" type="line" identifier="yiV6OCBLHg"/>
      <point x="3800.4470987504014" y="472.31264297330364" type="line" identifier="9kdl9SYsn8"/>
      <point x="1022.0260140019899" y="472.31264297330364" type="line" identifier="yZDWuX8LLe"/>
      <point x="1022.0260140019899" y="411.2246961676391" type="line" identifier="jYb9001DTm"/>
      <point x="252.9632605578551" y="411.2246961676391" type="line" identifier="ho4DrS0rdW"/>
    </contour>
  </outline>
</glyph>
<glyph name="U" format="2">
  <advance width="5337.849858867877"/>
  <unicode hex="0055"/>
  <outline>
    <contour>
      <point x="4172.8935121307495" y="1600.0" type="line" smooth="yes"/>
      <point x="4172.8935121307495" y="501.48367586806023" type="line"/>
      <point x="1462.9620311001693" y="501.48367586806023" type="line" smooth="yes"/>
      <point x="1163.2155458762065" y="792.1890118346575" type="line" smooth="yes"/>
      <point x="1163.2155458762065" y="1600.0" type="line"/>
      <point x="225.24338452566678" y="1600.0" type="line" smooth="yes"/>
      <point x="225.24338452566678" y="504.06896385875365" type="line" smooth="yes"/>
      <point x="698.6594672750828" y="0.0" type="line" smooth="yes"/>
      <point x="5112.44275506738" y="0.0" type="line" smooth="yes"/>
      <point x="5112.44275506738" y="1600.0" type="line" smooth="yes"/>
    </contour>
  </outline>
</glyph>
<glyph name="V" format="2">
  <advance width="5337.849858867877"/>
  <unicode hex="0056"/>
  <outline>
    <contour>
      <point x="1162.786143500858" y="1600.0" type="line" smooth="yes"/>
      <point x="1162.786143500858" y="501.48367586806023" type="line"/>
      <point x="3826.7490463436407" y="501.48367586806023" type="line" smooth="yes"/>
      <point x="4172.4641097554" y="852.1081592102613" type="line" smooth="yes"/>
      <point x="4172.4641097554" y="1600.0" type="line"/>
      <point x="5112.013352692031" y="1600.0" type="line" smooth="yes"/>
      <point x="5112.013352692031" y="504.06896385875365" type="line" smooth="yes"/>
      <point x="4637.689984278572" y="0.0" type="line" smooth="yes"/>
      <point x="224.81398215031845" y="0.0" type="line" smooth="yes"/>
      <point x="224.81398215031845" y="1600.0" type="line" smooth="yes"/>
    </contour>
  </outline>
</glyph>
<glyph name="W" format="2">
  <advance width="7712.47105063021"/>
  <unicode hex="0057"/>
  <outline>
    <contour>
      <point x="2064.6028190352513" y="1600.0" type="line" smooth="yes" identifier="12Pyby1xY2"/>
      <point x="1111.2633534435336" y="1600.0" type="line" smooth="yes" identifier="5LJg4ajoG6"/>
      <point x="1111.2633534435336" y="0.0" type="line" smooth="yes" identifier="ZqTZqAY3uY"/>
      <point x="3663.8179110040965" y="0.0" type="line" smooth="yes" identifier="rCeQLyjlsN"/>
      <point x="3859.476410344278" y="288.6345264183102" type="line"/>
      <point x="3862.2730899067233" y="288.6345264183102" type="line"/>
      <point x="4055.144718291865" y="0.0" type="line" smooth="yes" identifier="Pkl7cZ37MU"/>
      <point x="6123.939122305488" y="0.0" type="line" smooth="yes" identifier="R4lklfJsHA"/>
      <point x="6599.157848539228" y="502.2663203744285" type="line" smooth="yes" identifier="7g7f8Wu7K4"/>
      <point x="6599.157848539228" y="1600.0" type="line" smooth="yes" identifier="RTOJW56qXy"/>
      <point x="5660.366279192105" y="1600.0" type="line" identifier="JfSFAkWGZC"/>
      <point x="5660.366279192105" y="783.9617816014213" type="line" smooth="yes" identifier="WWvGwSpq0g"/>
      <point x="5370.563094626157" y="501.48367586806023" type="line" smooth="yes" identifier="oee4nqI8Wl"/>
      <point x="4483.146221296371" y="501.48367586806023" type="line" identifier="Ljn2lpvpG8"/>
      <point x="4328.586400214027" y="787.36799862926" type="line"/>
      <point x="4328.663931198465" y="1475.1306862417973" type="line" smooth="yes"/>
      <point x="3397.189504820135" y="1475.1306862417973" type="line"/>
      <point x="3395.653422190959" y="1075.1467112758405" type="line"/>
      <point x="3395.64745826908" y="788.6251957663369" type="line"/>
      <point x="3200.911515118722" y="501.48367586806023" type="line" identifier="GlWB6PG54Z"/>
      <point x="2064.6028190352513" y="501.48367586806023" type="line" identifier="iqeTRv7HXg"/>
    </contour>
  </outline>
</glyph>
<glyph name="X" format="2">
  <advance width="5350.668247827406"/>
  <unicode hex="0058"/>
  <outline>
    <contour>
      <point x="3832.274920566211" y="544.8825071317565" type="line"/>
      <point x="4183.783888994099" y="316.9508096685274" type="line"/>
      <point x="4183.783888994099" y="0.0" type="line"/>
      <point x="5122.485326167008" y="0.0" type="line"/>
      <point x="5122.485326167008" y="554.0418676935193" type="line"/>
      <point x="4763.630354077801" y="799.0" type="line"/>
      <point x="4763.630354077801" y="801.0" type="line"/>
      <point x="5119.389230070911" y="1032.111285459634" type="line"/>
      <point x="5119.389230070911" y="1600.0" type="line"/>
      <point x="4180.7653238824405" y="1600.0" type="line"/>
      <point x="4180.7653238824405" y="1269.2023434846258" type="line"/>
      <point x="3832.274920566211" y="1055.1174928682435" type="line"/>
      <point x="1514.9215762308856" y="1055.1174928682435" type="line"/>
      <point x="1165.5833671509347" y="1269.2023434846258" type="line"/>
      <point x="1165.5833671509347" y="1600.0" type="line"/>
      <point x="226.95946096246394" y="1600.0" type="line"/>
      <point x="226.95946096246394" y="1032.111285459634" type="line"/>
      <point x="584.9685962238513" y="801.0" type="line"/>
      <point x="584.9685962238513" y="799.0" type="line"/>
      <point x="223.86336486636785" y="554.0418676935193" type="line"/>
      <point x="223.86336486636785" y="0.0" type="line"/>
      <point x="1162.5648020392764" y="0.0" type="line"/>
      <point x="1162.5648020392764" y="316.9508096685274" type="line"/>
      <point x="1514.9215762308856" y="544.8825071317565" type="line"/>
    </contour>
  </outline>
</glyph>
<glyph name="Y" format="2">
  <advance width="5331.080245410576"/>
  <unicode hex="0059"/>
  <outline>
    <contour>
      <point x="2196.83706829953" y="1.3463553643733823" type="line" identifier="XKjckKJ7m9"/>
      <point x="3135.4609744880017" y="0.0" type="line" identifier="WihjL321cU"/>
      <point x="3135.4609744880017" y="578.1020149278407" type="line" identifier="rvzWMWl6O1"/>
      <point x="5108.636826015204" y="766.8753347942538" type="line" identifier="YbKEFhFR3q"/>
      <point x="5108.636826015204" y="1578.458314170026" type="line" identifier="wnC8PudY2b"/>
      <point x="4169.935388842295" y="1578.458314170026" type="line" identifier="spI4xe8t4f"/>
      <point x="4169.935388842295" y="1137.776851927002" type="line" identifier="Jw55i2s2Mm"/>
      <point x="2808.2699155612067" y="1019.757616475334" type="line" identifier="9ncbEH2hEb"/>
      <point x="2524.0281272263246" y="1019.757616475334" type="line" identifier="u7HFbTQwMo"/>
      <point x="1161.067325583842" y="1137.776851927002" type="line" identifier="oy8ifCCtGL"/>
      <point x="1161.067325583842" y="1578.458314170026" type="line" identifier="ah5yat5gKV"/>
      <point x="222.44341939537134" y="1578.458314170026" type="line" identifier="fJXhpKV79E"/>
      <point x="222.44341939537134" y="766.8753347942538" type="line" identifier="k3vH9oxqcN"/>
      <point x="2196.83706829953" y="578.1020149278407" type="line" identifier="3Kveia3O9h"/>
    </contour>
  </outline>
</glyph>
<glyph name="Z" format="2">
  <advance width="5334.980139298457"/>
  <unicode hex="005A"/>
  <outline>
    <contour>
      <point x="223.4414143873603" y="0.0" type="line"/>
      <point x="5111.600786973159" y="0.0" type="line" identifier="pzdvPTirLJ"/>
      <point x="5111.600786973159" y="370.85892499105717" type="line" identifier="91SxUS0iwG"/>
      <point x="4342.460502544587" y="370.85892499105717" type="line"/>
      <point x="4342.460502544587" y="501.48367586806023" type="line"/>
      <point x="1754.8776103430757" y="501.48367586806023" type="line"/>
      <point x="1754.8776103430757" y="603.1691541391242" type="line"/>
      <point x="5107.868679490301" y="925.8613328042758" type="line" identifier="yyb1NCCI5w"/>
      <point x="5107.868679490301" y="1600.0" type="line" identifier="5FogYRSgkk"/>
      <point x="226.53154656157656" y="1600.0" type="line" identifier="svlFvrau4c"/>
      <point x="226.53154656157656" y="1242.165390615841" type="line" identifier="LQ9fBsTy9K"/>
      <point x="988.4077410744077" y="1242.165390615841" type="line"/>
      <point x="988.4077410744077" y="1098.5163241319399" type="line"/>
      <point x="3533.850601352102" y="1098.5163241319399" type="line"/>
      <point x="3533.850601352102" y="1019.5946487027569" type="line"/>
      <point x="223.4414143873603" y="725.7161004848692" type="line" identifier="teVKnpBcVb"/>
    </contour>
  </outline>
</glyph>
<glyph name="E.wide" format="2">
  <advance width="4502.30523015508"/>
  <outline>
    <contour>
      <point x="225.57476695915133" y="0.0" type="line" identifier="fZynkQ4XHB"/>
      <point x="4404.664120577033" y="0.0" type="line" identifier="FAQNpgUPxV"/>
      <point x="4404.664120577033" y="456.2540378216054" type="line" identifier="5cgTYOhATF"/>
      <point x="1163.5469283096909" y="456.2540378216054" type="line" identifier="bWs42DaCgU"/>
      <point x="1163.5469283096909" y="642.697535373211" type="line" identifier="VtD2aADJmn"/>
      <point x="4308.480630780931" y="642.697535373211" type="line" identifier="PpbsFdHAnS"/>
      <point x="4308.480630780931" y="957.3799956112268" type="line" identifier="8WuC5p8Ax5"/>
      <point x="1163.5469283096909" y="957.3799956112268" type="line" identifier="m39IWn9ntA"/>
      <point x="1163.5469283096909" y="1144.5988030072115" type="line" identifier="gQ21I4SHQg"/>
      <point x="4403.664120577033" y="1144.5988030072115" type="line" identifier="eqNb2VTwYs"/>
      <point x="4403.664120577033" y="1600.0" type="line" identifier="qYRmo14Il5"/>
      <point x="225.57476695915133" y="1600.0" type="line" identifier="HmJIcnLWfC"/>
    </contour>
  </outline>
</glyph>
<glyph name="F.wide" format="2">
  <advance width="4500.740596452308"/>
  <outline>
    <contour>
      <point x="226.24794464133802" y="0.0" type="line" identifier="oAgH2tA6DJ"/>
      <point x="1164.2201059918775" y="0.0" type="line" identifier="zCZyMcW5ho"/>
      <point x="1164.2201059918775" y="408.04031959887817" type="line" identifier="yHYqkMd7LI"/>
      <point x="4184.727183640097" y="408.04031959887817" type="line" identifier="NmB7yyQuio"/>
      <point x="4184.727183640097" y="842.4306198089982" type="line" identifier="wQk2C8zPHh"/>
      <point x="1164.2201059918775" y="842.4306198089982" type="line" identifier="4cFHKQfHDt"/>
      <point x="1164.2201059918775" y="1097.057772487202" type="line" identifier="ZvzwyrcwpS"/>
      <point x="4413.479981482984" y="1097.057772487202" type="line" identifier="4E754ovOIe"/>
      <point x="4413.479981482984" y="1600.0" type="line" identifier="NUrIjqOB7J"/>
      <point x="226.24794464133802" y="1600.0" type="line" identifier="TBAYuCfUFX"/>
    </contour>
  </outline>
</glyph>
<glyph name="G.wide" format="2">
  <advance width="5331.955676397118"/>
  <outline>
    <contour>
      <point x="222.20024529033537" y="0.0" type="line" identifier="7lPhzTnk2Z"/>
      <point x="5109.219351483615" y="0.0" type="line" identifier="qJVLZGnkwh"/>
      <point x="5109.219351483615" y="937.3308714119526" type="line" identifier="uek1NNj7De"/>
      <point x="2314.6956596235877" y="937.3308714119526" type="line" identifier="qcvimxjndX"/>
      <point x="2314.6956596235877" y="639.0001803605409" type="line" identifier="EARaY3Su65"/>
      <point x="4170.391165940715" y="639.0001803605409" type="line" identifier="4m6dHLVhZq"/>
      <point x="4170.391165940715" y="465.0198847496145" type="line" identifier="Y750RHTvDj"/>
      <point x="1160.1724066408751" y="465.0198847496145" type="line" identifier="L2LsGnXiZ2"/>
      <point x="1160.1724066408751" y="893.4625436247056" type="line" identifier="sUWsr03vF4"/>
      <point x="1395.0738907075245" y="1127.6873570266964" type="line" identifier="dbOUe6OhxL"/>
      <point x="5108.399615832048" y="1127.6873570266964" type="line" identifier="5BjRbcud80"/>
      <point x="5108.399615832048" y="1600.0" type="line" identifier="9eJelv8BOw"/>
      <point x="690.208397586776" y="1600.0" type="line" identifier="lfZev3ICaC"/>
      <point x="222.20024529033537" y="1100.4624173723273" type="line" identifier="V1EWIdPahq"/>
    </contour>
  </outline>
</glyph>
<glyph name="K.alt" format="2">
  <advance width="5334.880195510826"/>
  <outline>
    <contour>
      <point x="1162.0739057375692" y="0.0" type="line" identifier="wmNm7XZsaF"/>
      <point x="1162.0739057375692" y="515.7114742369998" type="line" identifier="O22liaP9Qk"/>
      <point x="3888.3882230578924" y="515.7114742369998" type="line" identifier="ELFBWIb1vd"/>
      <point x="4171.343454565676" y="325.14663311960607" type="line" identifier="DzXo67YEfw"/>
      <point x="4171.343454565676" y="0.0" type="line" identifier="aKpYWD78l2"/>
      <point x="5110.044891738586" y="0.0" type="line" identifier="ChS7KlqGi6"/>
      <point x="5110.044891738586" y="552.6105264423584" type="line" identifier="sWLgkU8Vey"/>
      <point x="4749.7158990822645" y="799.0" type="line" identifier="Of0iQc0wBG"/>
      <point x="4749.7158990822645" y="801.0" type="line" identifier="j4jnmtDJYB"/>
      <point x="5111.88389290191" y="1600.0" type="line" identifier="dMJ1ywOKQQ"/>
      <point x="4176.787742697652" y="1600.0" type="line" identifier="08OWjR2YBJ"/>
      <point x="4001.611602593584" y="1060.9516994471949" type="line" identifier="g4YLdZEoM3"/>
      <point x="1162.0739057375692" y="1060.9516994471949" type="line" identifier="uZuki3Isec"/>
      <point x="1162.0739057375692" y="1600.0" type="line" identifier="nRfcNgqJ4H"/>
      <point x="223.37246856466078" y="1600.0" type="line" identifier="3XJlWt89ad"/>
      <point x="223.37246856466078" y="0.0" type="line" identifier="wdbO8kCovY"/>
    </contour>
  </outline>
</glyph>
<glyph name="R.alt" format="2">
  <advance width="5338.70672474276"/>
  <outline>
    <contour>
      <point x="1191.7579591603615" y="880.4787610433256" type="line"/>
      <point x="1190.2994075156237" y="1099.3641298956616" type="line"/>
      <point x="4143.353885416948" y="1099.3641298956616" type="line"/>
      <point x="4144.083161239317" y="880.4787610433256" type="line"/>
    </contour>
    <contour>
      <point x="5085.348228107988" y="0.8478057637216796" type="line"/>
      <point x="4440.644241839437" y="600.6983319655992" type="line"/>
      <point x="5123.624044464885" y="605.3501910318727" type="line"/>
      <point x="5082.055322589857" y="1600.8478057637217" type="line"/>
      <point x="252.32724616508398" y="1600.8478057637217" type="line"/>
      <point x="252.32724616508398" y="0.8478057637216796" type="line"/>
      <point x="1191.0286833379926" y="0.8478057637216796" type="line"/>
      <point x="1191.0286833379926" y="454.8397707016325" type="line"/>
      <point x="3590.4823201579957" y="454.6595063532" type="line"/>
      <point x="4153.85736487238" y="0.8478057637216796" type="line"/>
    </contour>
  </outline>
</glyph>
<glyph name="S.alt" format="2">
  <advance width="4966.944944944945"/>
  <outline>
    <contour>
      <point x="87.34534534534534" y="0.0" type="line" identifier="09VlJ0BjUX"/>
      <point x="4880.978978978979" y="0.0" type="line" identifier="EagWihqFM8"/>
      <point x="4880.978978978979" y="962.3613613613613" type="line" identifier="KfNuQA7eZe"/>
      <point x="1014.4026398771143" y="962.3613613613613" type="line" identifier="At364YZFEy"/>
      <point x="1014.4026398771143" y="1127.5005966927886" type="line"/>
      <point x="1207.0864468071677" y="1153.9412866319774" type="line"/>
      <point x="3942.187409631854" y="1153.9412866319774" type="line" identifier="3ZUkG35meB"/>
      <point x="3942.187409631854" y="1108.2952862772686" type="line" identifier="DTOJhFIl15"/>
      <point x="4880.978978978979" y="1108.2952862772686" type="line" identifier="9KDcrfQ5Ui"/>
      <point x="4880.978978978979" y="1600.0" type="line" identifier="SaF9ojRFrW"/>
      <point x="607.8254530807083" y="1600.0" type="line"/>
      <point x="85.34534534534534" y="1132.9085271457643" type="line"/>
      <point x="85.34534534534534" y="637.6386386386387" type="line" identifier="3sQ8t8BZ6b"/>
      <point x="3942.187409631854" y="637.6386386386387" type="line" identifier="yiV6OCBLHg"/>
      <point x="3942.187409631854" y="446.0587133680227" type="line" identifier="9kdl9SYsn8"/>
      <point x="1024.2863914966017" y="446.0587133680227" type="line" identifier="yZDWuX8LLe"/>
      <point x="1024.2863914966017" y="463.13227040854673" type="line" identifier="jYb9001DTm"/>
      <point x="87.34534534534534" y="463.13227040854673" type="line" identifier="ho4DrS0rdW"/>
    </contour>
  </outline>
</glyph>
<glyph name="S.wide" format="2">
  <advance width="4966.944944944945"/>
  <outline>
    <contour>
      <point x="87.34534534534534" y="0.0" type="line" identifier="09VlJ0BjUX"/>
      <point x="4880.978978978979" y="0.0" type="line" identifier="EagWihqFM8"/>
      <point x="4880.978978978979" y="962.3613613613613" type="line" identifier="KfNuQA7eZe"/>
      <point x="1014.4026398771143" y="962.3613613613613" type="line" identifier="At364YZFEy"/>
      <point x="1014.4026398771143" y="957.9394439484528" type="line"/>
      <point x="1157.3979715451187" y="1153.9412866319774" type="line"/>
      <point x="4880.978978978979" y="1153.9412866319774" type="line" identifier="3ZUkG35meB"/>
      <point x="4880.978978978979" y="1600.0" type="line" identifier="SaF9ojRFrW"/>
      <point x="540.5076848620392" y="1600.0" type="line"/>
      <point x="85.34534534534534" y="929.4351438525612" type="line"/>
      <point x="85.34534534534534" y="637.6386386386387" type="line" identifier="3sQ8t8BZ6b"/>
      <point x="3942.187409631854" y="637.6386386386387" type="line" identifier="yiV6OCBLHg"/>
      <point x="3942.187409631854" y="446.0587133680227" type="line" identifier="9kdl9SYsn8"/>
      <point x="87.34534534534534" y="446.0587133680227" type="line" identifier="yZDWuX8LLe"/>
    </contour>
  </outline>
</glyph>
<glyph name="Z.wide" format="2">
  <advance width="5334.980139298457"/>
  <outline>
    <contour>
      <point x="223.4414143873603" y="0.0" type="line"/>
      <point x="5112.947142337533" y="0.0" type="line" identifier="pzdvPTirLJ"/>
      <point x="5112.947142337533" y="500.75440004569134" type="line"/>
      <point x="1263.8795432068705" y="500.75440004569134" type="line"/>
      <point x="1263.8795432068705" y="513.6817628439251" type="line"/>
      <point x="5103.493024556087" y="739.428786143501" type="line" identifier="yyb1NCCI5w"/>
      <point x="5103.493024556087" y="1600.0" type="line" identifier="5FogYRSgkk"/>
      <point x="239.99510020531042" y="1600.0" type="line" identifier="svlFvrau4c"/>
      <point x="239.99510020531042" y="1099.2455999543088" type="line"/>
      <point x="3953.3778282787284" y="1099.2455999543088" type="line"/>
      <point x="3953.3778282787284" y="1088.9623828032238" type="line"/>
      <point x="223.4414143873603" y="892.0289899509119" type="line" identifier="teVKnpBcVb"/>
    </contour>
  </outline>
</glyph>
